<svg width="40" height="40" viewBox="0 0 40 40" fill="none" xmlns="http://www.w3.org/2000/svg">
<path fill-rule="evenodd" clip-rule="evenodd" d="M17.1169 0.144466C9.44782 1.09626 2.99694 6.1908 0.36163 13.3764C0.122105 14.0291 -0.0372213 14.5994 0.00753292 14.6435C0.0521082 14.6877 0.0886282 14.6345 0.0886282 14.5252C0.0886282 14.134 2.94735 10.1218 4.14677 8.82931C8.07619 4.59568 12.9659 2.37618 17.0505 2.97221C18.9402 3.24789 21.1529 4.30635 22.3813 5.52213C23.4441 6.57403 24.0769 7.9918 24.0769 9.32151C24.0769 10.8686 22.7255 12.4969 18.611 15.9072C14.7371 19.118 13.3583 20.7668 12.3706 23.3697C11.0334 26.8939 11.4045 32.0099 13.4515 38.2688C13.876 39.5666 13.9331 39.6465 14.5573 39.8182C14.9193 39.9176 15.2652 39.9995 15.3257 40C15.3862 40.0005 15.0781 39.0642 14.6413 37.9192C12.41 32.0719 12.0386 27.6467 13.4601 23.8505C14.4184 21.2921 15.4737 20.0108 20.2467 15.6104C21.5918 14.3702 22.9199 12.9625 23.3752 12.294C23.8104 11.6551 24.2269 11.1299 24.3007 11.1269C24.5869 11.1149 24.4396 13.6809 24.1213 14.2509C23.9493 14.5592 23.6271 15.1345 23.4052 15.5291C23.0105 16.2318 23.0093 16.2504 23.3487 16.4302C23.5393 16.5312 23.882 16.6162 24.1099 16.6191C24.4919 16.624 24.4985 16.6394 24.1935 16.815C24.0114 16.9197 23.617 16.9568 23.3172 16.8974L22.7719 16.7895L22.909 17.9862C23.1621 20.1956 23.158 20.2207 22.5191 20.4273C21.7601 20.6727 21.6847 20.7691 21.9165 21.1977C22.0769 21.4946 22.0497 21.5929 21.7649 21.7437C21.5739 21.8451 21.2808 21.8759 21.1138 21.8125C20.8308 21.7049 20.8301 21.7272 21.1015 22.1372C21.4174 22.6145 21.3367 22.8149 20.8283 22.8149C20.6172 22.8149 20.3612 23.1096 20.0972 23.6565C19.5873 24.7128 19.2306 24.7784 17.8659 24.0665C17.2943 23.7683 16.6903 23.5242 16.5237 23.524C15.9361 23.5233 15.6631 24.2265 15.6631 25.7405C15.6631 28.1993 16.5238 30.5591 18.0779 32.361C18.8498 33.2561 21.3859 35.5678 21.5986 35.5702C21.6631 35.5709 21.9534 35.0734 22.2438 34.4643C22.5341 33.8553 22.9292 33.1677 23.1217 32.9363C23.464 32.5249 23.4846 32.5223 24.0583 32.8158C24.6537 33.1206 26.735 33.619 27.3887 33.6135C27.5857 33.6119 27.1829 33.3888 26.4937 33.1178C24.0674 32.1638 23.9661 32.0917 23.5107 30.9964C23.0812 29.964 22.9953 28.4646 23.2551 26.5356C23.3141 26.0971 23.4094 25.2401 23.467 24.631C23.5247 24.022 23.61 23.5236 23.6571 23.5236C23.8872 23.5236 24.5848 23.977 25.1063 24.4655C25.552 24.8831 25.6874 25.1577 25.6854 25.6402C25.6838 25.9866 25.6134 26.378 25.5289 26.5099C25.4269 26.6694 25.6675 27.295 26.2443 28.3703C26.7223 29.2615 27.1241 30.1899 27.1376 30.4335C27.154 30.7369 27.1875 30.7787 27.2436 30.5664C27.3447 30.1834 27.2572 30.1773 29.0849 30.6933C29.9193 30.9289 30.6257 31.0981 30.6549 31.0692C30.7566 30.9686 28.5395 30.0547 27.9662 29.9612C27.5029 29.8855 27.2717 29.6777 26.7962 28.9103C26.4383 28.3327 26.2593 27.8659 26.3442 27.7319C26.4215 27.6099 26.4614 27.37 26.433 27.1988C26.4045 27.0277 26.5037 26.8411 26.6535 26.7842C26.8447 26.7116 26.8959 26.5328 26.8252 26.1834C26.7353 25.7383 26.7844 25.6731 27.2931 25.5624C27.6608 25.4825 27.8295 25.3562 27.7708 25.2047C27.7208 25.0759 27.7956 24.9263 27.9371 24.8727C28.0785 24.819 28.1943 24.6104 28.1943 24.4093C28.1943 23.6849 28.7113 22.833 29.4413 22.355C29.859 22.0814 30.1411 21.7728 30.0914 21.644C29.9412 21.257 31.3756 21.162 32.7179 21.4702C34.8921 21.9693 36.4291 22.9444 37.2642 24.3548C37.6412 24.9917 37.7354 25.3815 37.7404 26.3292C37.7479 27.7429 37.3689 28.5739 36.2202 29.6625C35.445 30.3969 33.8205 31.3194 33.3022 31.3194C33.1037 31.3194 33.0278 31.506 33.0278 31.9934C33.0278 33.6004 30.8092 36.3 27.9201 38.2082C27.1356 38.7265 26.4534 39.1891 26.4041 39.2362C26.2572 39.3772 28.1535 38.6115 28.9639 38.2025C31.4918 36.9274 34.8831 33.9698 36.4225 31.6975C42.0323 23.4173 40.9555 12.6891 33.8187 5.75423C29.4952 1.55337 23.0927 -0.597196 17.1169 0.144466ZM18.7247 10.8521C16.0056 14.4166 11.1723 18.4551 6.26758 21.2609C5.2846 21.8233 4.52933 22.2834 4.5893 22.2834C4.64927 22.2834 5.33276 22.001 6.10808 21.6557C12.4582 18.8283 16.1699 15.6237 19.4894 10.1025C19.8168 9.55804 19.4008 9.9659 18.7247 10.8521ZM21.1768 24.7993C21.295 24.9162 21.3917 25.2426 21.3917 25.5247C21.3917 25.8882 21.4957 26.0642 21.7497 26.1299C22.1781 26.2408 22.175 26.2105 21.8392 27.0059C21.6915 27.3558 21.5707 27.9082 21.5707 28.2339C21.5707 29.0257 22.1754 30.5825 22.8308 31.478C23.4308 32.298 23.2837 32.3842 22.2576 31.8134C21.3371 31.3013 20.9309 30.6185 20.6502 29.1105C20.5224 28.4238 20.2789 27.7376 20.1006 27.5611C19.6008 27.0665 19.7798 25.6271 20.4294 24.9166C20.7832 24.5296 20.8879 24.5133 21.1768 24.7993ZM9.32394 26.4042C7.7622 29.0418 6.87409 31.9445 6.8553 34.4733C6.84402 35.9822 6.84527 35.9866 7.44945 36.4749C7.78242 36.7442 8.26649 37.0883 8.52535 37.2398L8.99562 37.5149L8.75127 36.813C8.31411 35.5571 8.0966 33.5887 8.2126 31.9395C8.33505 30.1984 9.00064 27.4757 9.57689 26.3578C10.0608 25.4191 9.88838 25.4508 9.32394 26.4042ZM28.7314 25.8062C28.7314 25.8923 28.8971 26.0057 29.0996 26.0581C29.4018 26.1363 29.4301 26.1083 29.2568 25.9015C29.0203 25.6196 28.7314 25.5674 28.7314 25.8062ZM33.708 28.1657C34.0394 28.4936 33.9637 29.0377 33.5201 29.5163C33.2832 29.7716 33.2234 29.9178 33.3749 29.8708C33.5167 29.8269 33.7924 29.5792 33.9878 29.3201C34.285 28.9261 34.3094 28.776 34.1368 28.4011C34.0233 28.1547 33.8321 27.9531 33.7118 27.9531C33.5417 27.9531 33.541 28.0004 33.708 28.1657Z" fill="white"/>
</svg>
