<svg width="106" height="109" viewBox="0 0 106 109" fill="none" xmlns="http://www.w3.org/2000/svg">
<path fill-rule="evenodd" clip-rule="evenodd" d="M47.2338 0.288931C31.8956 2.19252 18.9939 12.3816 13.7233 26.7527C13.2442 28.0582 12.9256 29.1988 13.0151 29.2871C13.1042 29.3753 13.1773 29.269 13.1773 29.0504C13.1773 28.268 18.8947 20.2436 21.2935 17.6586C29.1524 9.19135 38.9317 4.75237 47.101 5.94441C50.8804 6.49578 55.3057 8.61269 57.7625 11.0443C59.8882 13.1481 61.1538 15.9836 61.1538 18.643C61.1538 21.7372 58.451 24.9937 50.222 31.8143C42.4741 38.2359 39.7165 41.5335 37.7413 46.7393C35.0667 53.7878 35.809 64.0197 39.9031 76.5376C40.752 79.1333 40.8662 79.2931 42.1147 79.6364C42.8386 79.8352 43.5303 79.9989 43.6513 80C43.7724 80.0011 43.1562 78.1283 42.2826 75.8385C37.82 64.1438 37.0771 55.2934 39.9203 47.7011C41.8368 42.5842 43.9474 40.0215 53.4933 31.2208C56.1836 28.7403 58.8399 25.925 59.7503 24.588C60.6207 23.3102 61.4539 22.2599 61.6014 22.2539C62.1739 22.2298 61.8792 27.3619 61.2426 28.5018C60.8986 29.1184 60.2541 30.269 59.8105 31.0581C59.021 32.4635 59.0185 32.5007 59.6974 32.8604C60.0787 33.0624 60.7639 33.2325 61.2197 33.2381C61.9838 33.248 61.997 33.2789 61.3869 33.63C61.0228 33.8395 60.2341 33.9135 59.6343 33.7948L58.5438 33.579L58.818 35.9723C59.3243 40.3911 59.316 40.4414 58.0382 40.8546C56.5202 41.3454 56.3694 41.5381 56.8331 42.3953C57.1539 42.9892 57.0995 43.1859 56.5298 43.4874C56.1478 43.6901 55.5617 43.7518 55.2277 43.6249C54.6616 43.4098 54.6602 43.4545 55.2029 44.2745C55.8349 45.2291 55.6734 45.6299 54.6566 45.6299C54.2345 45.6299 53.7225 46.2192 53.1944 47.313C52.1747 49.4257 51.4611 49.5568 48.7318 48.133C47.5886 47.5366 46.3806 47.0483 46.0473 47.048C44.8722 47.0466 44.3262 48.453 44.3262 51.4809C44.3262 56.3987 46.0477 61.1183 49.1558 64.7221C50.6996 66.5123 55.7719 71.1355 56.1972 71.1405C56.3261 71.1419 56.9068 70.1469 57.4876 68.9286C58.0683 67.7107 58.8585 66.3354 59.2434 65.8727C59.9279 65.0498 59.9691 65.0445 61.1166 65.6317C62.3074 66.2412 66.4699 67.238 67.7775 67.227C68.1713 67.2238 67.3657 66.7777 65.9873 66.2355C61.1349 64.3277 60.9322 64.1834 60.0214 61.9928C59.1625 59.928 58.9906 56.9291 59.5101 53.0713C59.6283 52.1943 59.8187 50.4802 59.934 49.262C60.0493 48.0441 60.2201 47.0473 60.3143 47.0473C60.7743 47.0473 62.1696 47.9541 63.2125 48.931C64.104 49.7662 64.3747 50.3155 64.3708 51.2804C64.3676 51.9731 64.2268 52.7559 64.0579 53.0199C63.8538 53.3388 64.335 54.59 65.4886 56.7406C66.4445 58.523 67.2483 60.3798 67.2752 60.8671C67.3081 61.4737 67.375 61.5573 67.4871 61.1328C67.6894 60.3667 67.5143 60.3547 71.1698 61.3865C72.8386 61.8578 74.2514 62.1962 74.3098 62.1385C74.5132 61.9372 70.0789 60.1094 68.9325 59.9223C68.0059 59.771 67.5433 59.3554 66.5924 57.8207C65.8767 56.6655 65.5186 55.7318 65.6883 55.4639C65.843 55.2197 65.9229 54.7399 65.8659 54.3976C65.809 54.0553 66.0074 53.6822 66.307 53.5684C66.6894 53.4232 66.7918 53.0656 66.6504 52.3668C66.4706 51.4767 66.5687 51.3463 67.5863 51.1248C68.3217 50.965 68.659 50.7124 68.5415 50.4094C68.4416 50.1518 68.5913 49.8527 68.8741 49.7453C69.157 49.638 69.3886 49.2209 69.3886 48.8187C69.3886 47.3697 70.4226 45.666 71.8827 44.71C72.718 44.1628 73.2822 43.5456 73.1827 43.2879C72.8823 42.514 75.7513 42.3241 78.4358 42.9403C82.7841 43.9385 85.8582 45.8889 87.5284 48.7095C88.2825 49.9834 88.4708 50.763 88.4808 52.6585C88.4958 55.4858 87.7379 57.1478 85.4404 59.3249C83.8901 60.7937 80.6409 62.6388 79.6044 62.6388C79.2074 62.6388 79.0555 63.012 79.0555 63.9868C79.0555 67.2008 74.6184 72.6001 68.8401 76.4164C67.2712 77.4529 65.9067 78.3781 65.8083 78.4724C65.5143 78.7545 69.307 77.2229 70.9278 76.4051C75.9836 73.8548 82.7662 67.9396 85.845 63.395C97.0647 46.8347 94.9111 25.3782 80.6373 11.5085C71.9905 3.10675 59.1854 -1.19439 47.2338 0.288931ZM50.4493 21.7043C45.0112 28.8332 35.3446 36.9103 25.5352 42.5218C23.5692 43.6465 22.0587 44.5668 22.1786 44.5668C22.2985 44.5668 23.6655 44.002 25.2162 43.3113C37.9163 37.6566 45.3398 31.2474 51.9789 20.205C52.6337 19.1161 51.8016 19.9318 50.4493 21.7043ZM55.3537 49.5986C55.59 49.8325 55.7833 50.4852 55.7833 51.0493C55.7833 51.7765 55.9913 52.1283 56.4994 52.2598C57.3562 52.4816 57.3501 52.421 56.6784 54.0117C56.383 54.7116 56.1414 55.8165 56.1414 56.4678C56.1414 58.0514 57.3508 61.1651 58.6616 62.956C59.8617 64.5959 59.5674 64.7685 57.5151 63.6268C55.6741 62.6027 54.8617 61.237 54.3003 58.2211C54.0447 56.8476 53.5578 55.4752 53.2012 55.1223C52.2015 54.1329 52.5596 51.2542 53.8589 49.8332C54.5664 49.0593 54.7758 49.0267 55.3537 49.5986ZM31.6479 52.8083C28.5244 58.0836 26.7482 63.889 26.7106 68.9467C26.688 71.9643 26.6905 71.9732 27.8989 72.9498C28.5648 73.4884 29.533 74.1766 30.0507 74.4795L30.9912 75.0298L30.5025 73.6259C29.6282 71.1142 29.1932 67.1774 29.4252 63.8791C29.6701 60.3968 31.0013 54.9515 32.1538 52.7155C33.1216 50.8381 32.7768 50.9016 31.6479 52.8083ZM70.4627 51.6124C70.4627 51.7846 70.7943 52.0114 71.1992 52.1163C71.8036 52.2726 71.8601 52.2166 71.5136 51.8031C71.0406 51.2393 70.4627 51.1347 70.4627 51.6124ZM80.4161 56.3313C81.0788 56.9872 80.9274 58.0755 80.0401 59.0326C79.5665 59.5432 79.4469 59.8355 79.7498 59.7416C80.0333 59.6537 80.5847 59.1584 80.9757 58.6403C81.57 57.8522 81.6187 57.5521 81.2736 56.8023C81.0466 56.3094 80.6642 55.9061 80.4236 55.9061C80.0835 55.9061 80.082 56.0007 80.4161 56.3313Z" fill="#5CC78D"/>
<path d="M19.3125 106V89.0898H15.2109L10.4062 101.23H10.3125L5.50781 89.0898H1.40625V106H4.55859V94.5859H4.65234L9.24609 106H11.4727L16.0664 94.5859H16.1602V106H19.3125ZM30.1523 102.156C29.8359 103.117 28.875 103.738 27.6211 103.738C25.875 103.738 24.7383 102.508 24.7383 100.715V100.504H33.3984V99.4609C33.3984 95.6406 31.0898 93.168 27.4336 93.168C23.7188 93.168 21.375 95.7695 21.375 99.7773C21.375 103.797 23.6953 106.27 27.5625 106.27C30.668 106.27 32.918 104.617 33.293 102.156H30.1523ZM27.4688 95.6992C28.9922 95.6992 30.0352 96.8008 30.1055 98.4062H24.7734C24.8906 96.8359 25.9688 95.6992 27.4688 95.6992ZM39.832 106.199C41.6836 106.199 43.1367 105.227 43.7461 103.844H43.8047V106H47.1797V89.0898H43.7578V95.5938H43.6875C43.0781 94.1992 41.6719 93.2383 39.8555 93.2383C36.7031 93.2383 34.7109 95.7109 34.7109 99.6953C34.7109 103.715 36.6914 106.199 39.832 106.199ZM40.9922 95.9805C42.6914 95.9805 43.7812 97.4336 43.7812 99.7188C43.7812 102.016 42.6914 103.445 40.9922 103.445C39.2695 103.445 38.2148 102.027 38.2148 99.7188C38.2148 97.4219 39.2695 95.9805 40.9922 95.9805ZM62.0977 106V92.0078H66.9961V89.0898H53.6719V92.0078H58.5586V106H62.0977ZM74.2148 102.156C73.8984 103.117 72.9375 103.738 71.6836 103.738C69.9375 103.738 68.8008 102.508 68.8008 100.715V100.504H77.4609V99.4609C77.4609 95.6406 75.1523 93.168 71.4961 93.168C67.7812 93.168 65.4375 95.7695 65.4375 99.7773C65.4375 103.797 67.7578 106.27 71.625 106.27C74.7305 106.27 76.9805 104.617 77.3555 102.156H74.2148ZM71.5312 95.6992C73.0547 95.6992 74.0977 96.8008 74.168 98.4062H68.8359C68.9531 96.8359 70.0312 95.6992 71.5312 95.6992ZM90.6445 98.1133C90.4922 95.2656 88.3359 93.168 84.9375 93.168C81.1758 93.168 78.7734 95.6758 78.7734 99.707C78.7734 103.809 81.1758 106.27 84.9609 106.27C88.2656 106.27 90.4805 104.359 90.6562 101.395H87.4688C87.2578 102.766 86.3672 103.586 84.9961 103.586C83.2969 103.586 82.2422 102.18 82.2422 99.707C82.2422 97.2812 83.2969 95.8516 84.9844 95.8516C86.3906 95.8516 87.2695 96.7891 87.4688 98.1133H90.6445ZM92.3906 106H95.8125V98.8281C95.8125 97.1758 96.7617 96.0391 98.3789 96.0391C99.9375 96.0391 100.734 97.0234 100.734 98.6406V106H104.156V97.9141C104.156 95.0078 102.562 93.2031 99.7734 93.2031C97.8633 93.2031 96.4922 94.0938 95.8242 95.6758H95.7539V89.0898H92.3906V106Z" fill="#5CC78D"/>
</svg>
