<svg width="224" height="226" viewBox="0 0 224 226" fill="none" xmlns="http://www.w3.org/2000/svg">
<path fill-rule="evenodd" clip-rule="evenodd" d="M96.121 0.815377C53.281 6.18738 17.246 34.9414 2.52497 75.4974C1.18697 79.1814 0.296962 82.4004 0.546962 82.6494C0.795962 82.8984 0.999965 82.5984 0.999965 81.9814C0.999965 79.7734 16.969 57.1284 23.669 49.8334C45.619 25.9384 72.933 13.4114 95.75 16.7754C106.306 18.3314 118.666 24.3054 125.528 31.1674C131.465 37.1044 135 45.1064 135 52.6114C135 61.3434 127.451 70.5334 104.467 89.7814C82.827 107.903 75.125 117.209 69.608 131.9C62.138 151.791 64.211 180.666 75.646 215.992C78.017 223.317 78.336 223.768 81.823 224.737C83.845 225.298 85.777 225.76 86.115 225.763C86.453 225.766 84.732 220.481 82.292 214.019C69.828 181.016 67.753 156.04 75.694 134.614C81.047 120.174 86.942 112.942 113.604 88.1064C121.118 81.1064 128.537 73.1614 131.08 69.3884C133.511 65.7824 135.838 62.8184 136.25 62.8014C137.849 62.7334 137.026 77.2164 135.248 80.4334C134.287 82.1734 132.487 85.4204 131.248 87.6474C129.043 91.6134 129.036 91.7184 130.932 92.7334C131.997 93.3034 133.911 93.7834 135.184 93.7994C137.318 93.8274 137.355 93.9144 135.651 94.9054C134.634 95.4964 132.431 95.7054 130.756 95.3704L127.71 94.7614L128.476 101.515C129.89 113.985 129.867 114.127 126.298 115.293C122.058 116.678 121.637 117.222 122.932 119.641C123.828 121.317 123.676 121.872 122.085 122.723C121.018 123.295 119.381 123.469 118.448 123.111C116.867 122.504 116.863 122.63 118.379 124.944C120.144 127.638 119.693 128.769 116.853 128.769C115.674 128.769 114.244 130.432 112.769 133.519C109.921 139.481 107.928 139.851 100.305 135.833C97.112 134.15 93.738 132.772 92.807 132.771C89.525 132.767 88 136.736 88 145.281C88 159.159 92.808 172.478 101.489 182.648C105.801 187.7 119.968 200.747 121.156 200.761C121.516 200.765 123.138 197.957 124.76 194.519C126.382 191.082 128.589 187.201 129.664 185.895C131.576 183.573 131.691 183.558 134.896 185.215C138.222 186.935 149.848 189.748 153.5 189.717C154.6 189.708 152.35 188.449 148.5 186.919C134.947 181.535 134.381 181.128 131.837 174.946C129.438 169.119 128.958 160.656 130.409 149.769C130.739 147.294 131.271 142.457 131.593 139.019C131.915 135.582 132.392 132.769 132.655 132.769C133.94 132.769 137.837 135.328 140.75 138.085C143.24 140.442 143.996 141.992 143.985 144.715C143.976 146.67 143.583 148.879 143.111 149.624C142.541 150.524 143.885 154.055 147.107 160.124C149.777 165.154 152.022 170.394 152.097 171.769C152.189 173.481 152.376 173.717 152.689 172.519C153.254 170.357 152.765 170.323 162.975 173.235C167.636 174.565 171.582 175.52 171.745 175.357C172.313 174.789 159.928 169.631 156.726 169.103C154.138 168.676 152.846 167.503 150.19 163.172C148.191 159.912 147.191 157.277 147.665 156.521C148.097 155.832 148.32 154.478 148.161 153.512C148.002 152.546 148.556 151.493 149.393 151.172C150.461 150.762 150.747 149.753 150.352 147.781C149.85 145.269 150.124 144.901 152.966 144.276C155.02 143.825 155.962 143.112 155.634 142.257C155.355 141.53 155.773 140.686 156.563 140.383C157.353 140.08 158 138.903 158 137.768C158 133.679 160.888 128.871 164.966 126.173C167.299 124.629 168.875 122.887 168.597 122.16C167.758 119.976 175.771 119.44 183.269 121.179C195.414 123.996 204 129.5 208.665 137.46C210.771 141.055 211.297 143.255 211.325 148.604C211.367 156.583 209.25 161.273 202.833 167.417C198.503 171.562 189.428 176.769 186.533 176.769C185.424 176.769 185 177.822 185 180.573C185 189.643 172.607 204.88 156.468 215.65C152.086 218.575 148.275 221.186 148 221.452C147.179 222.248 157.772 217.926 162.299 215.618C176.42 208.421 195.364 191.728 203.963 178.903C235.3 132.169 229.285 71.6184 189.418 32.4774C165.267 8.76738 129.502 -3.37062 96.121 0.815377ZM105.102 61.2504C89.913 81.3684 62.914 104.162 35.516 119.998C30.025 123.172 25.806 125.769 26.141 125.769C26.476 125.769 30.294 124.175 34.625 122.226C70.097 106.268 90.831 88.1814 109.374 57.0194C111.203 53.9464 108.879 56.2484 105.102 61.2504ZM118.8 139.969C119.46 140.629 120 142.471 120 144.063C120 146.115 120.581 147.108 122 147.479C124.393 148.105 124.376 147.934 122.5 152.423C121.675 154.398 121 157.516 121 159.354C121 163.823 124.378 172.61 128.039 177.664C131.391 182.292 130.569 182.779 124.837 179.557C119.695 176.667 117.426 172.813 115.858 164.302C115.144 160.426 113.784 156.553 112.788 155.557C109.996 152.765 110.996 144.641 114.625 140.631C116.601 138.447 117.186 138.355 118.8 139.969ZM52.589 149.027C43.865 163.914 38.904 180.297 38.799 194.57C38.736 203.086 38.743 203.111 42.118 205.867C43.978 207.387 46.682 209.329 48.128 210.184L50.755 211.737L49.39 207.775C46.948 200.687 45.733 189.577 46.381 180.269C47.065 170.442 50.783 155.075 54.002 148.765C56.705 143.467 55.742 143.646 52.589 149.027ZM161 145.652C161 146.138 161.926 146.778 163.057 147.074C164.745 147.515 164.903 147.357 163.935 146.19C162.614 144.599 161 144.304 161 145.652ZM188.8 158.969C190.651 160.82 190.228 163.891 187.75 166.592C186.427 168.033 186.093 168.858 186.939 168.593C187.731 168.345 189.271 166.947 190.363 165.485C192.023 163.261 192.159 162.414 191.195 160.298C190.561 158.907 189.493 157.769 188.821 157.769C187.871 157.769 187.867 158.036 188.8 158.969Z" fill="black"/>
</svg>
