<svg width="22" height="20" viewBox="0 0 22 20" fill="none" xmlns="http://www.w3.org/2000/svg">
<path fill-rule="evenodd" clip-rule="evenodd" d="M8.25 3C8.25 2.58579 8.58579 2.25 9 2.25H21C21.4142 2.25 21.75 2.58579 21.75 3C21.75 3.41421 21.4142 3.75 21 3.75H9C8.58579 3.75 8.25 3.41421 8.25 3Z" fill="#4C464B"/>
<path fill-rule="evenodd" clip-rule="evenodd" d="M8.25 10C8.25 9.58579 8.58579 9.25 9 9.25H21C21.4142 9.25 21.75 9.58579 21.75 10C21.75 10.4142 21.4142 10.75 21 10.75H9C8.58579 10.75 8.25 10.4142 8.25 10Z" fill="#4C464B"/>
<path fill-rule="evenodd" clip-rule="evenodd" d="M8.25 17C8.25 16.5858 8.58579 16.25 9 16.25H21C21.4142 16.25 21.75 16.5858 21.75 17C21.75 17.4142 21.4142 17.75 21 17.75H9C8.58579 17.75 8.25 17.4142 8.25 17Z" fill="#4C464B"/>
<path fill-rule="evenodd" clip-rule="evenodd" d="M3 8.75C2.30964 8.75 1.75 9.30964 1.75 10C1.75 10.6904 2.30964 11.25 3 11.25C3.69036 11.25 4.25 10.6904 4.25 10C4.25 9.30964 3.69036 8.75 3 8.75ZM0.25 10C0.25 8.48122 1.48122 7.25 3 7.25C4.51878 7.25 5.75 8.48122 5.75 10C5.75 11.5188 4.51878 12.75 3 12.75C1.48122 12.75 0.25 11.5188 0.25 10Z" fill="#4C464B"/>
<path fill-rule="evenodd" clip-rule="evenodd" d="M3 15.75C2.30964 15.75 1.75 16.3096 1.75 17C1.75 17.6904 2.30964 18.25 3 18.25C3.69036 18.25 4.25 17.6904 4.25 17C4.25 16.3096 3.69036 15.75 3 15.75ZM0.25 17C0.25 15.4812 1.48122 14.25 3 14.25C4.51878 14.25 5.75 15.4812 5.75 17C5.75 18.5188 4.51878 19.75 3 19.75C1.48122 19.75 0.25 18.5188 0.25 17Z" fill="#4C464B"/>
<path fill-rule="evenodd" clip-rule="evenodd" d="M6.03033 0.96967C6.32322 1.26256 6.32322 1.73744 6.03033 2.03033L3.03033 5.03033C2.73744 5.32322 2.26256 5.32322 1.96967 5.03033L0.46967 3.53033C0.176777 3.23744 0.176777 2.76256 0.46967 2.46967C0.762563 2.17678 1.23744 2.17678 1.53033 2.46967L2.5 3.43934L4.96967 0.96967C5.26256 0.676777 5.73744 0.676777 6.03033 0.96967Z" fill="#4C464B"/>
</svg>
