<svg width="24" height="24" viewBox="0 0 24 24" fill="none" xmlns="http://www.w3.org/2000/svg">
<path fill-rule="evenodd" clip-rule="evenodd" d="M3 2.75C2.86193 2.75 2.75 2.86193 2.75 3V21C2.75 21.1381 2.86193 21.25 3 21.25H21C21.1381 21.25 21.25 21.1381 21.25 21V3C21.25 2.86193 21.1381 2.75 21 2.75H3ZM1.25 3C1.25 2.0335 2.0335 1.25 3 1.25H21C21.9665 1.25 22.75 2.0335 22.75 3V21C22.75 21.9665 21.9665 22.75 21 22.75H3C2.0335 22.75 1.25 21.9665 1.25 21V3Z" fill="black"/>
<path fill-rule="evenodd" clip-rule="evenodd" d="M1.25 7C1.25 6.58579 1.58579 6.25 2 6.25H22C22.4142 6.25 22.75 6.58579 22.75 7C22.75 7.41421 22.4142 7.75 22 7.75H2C1.58579 7.75 1.25 7.41421 1.25 7Z" fill="black"/>
<path fill-rule="evenodd" clip-rule="evenodd" d="M22 4.75C22.4142 4.75 22.75 5.08579 22.75 5.5V11.5C22.75 11.9142 22.4142 12.25 22 12.25C21.5858 12.25 21.25 11.9142 21.25 11.5V5.5C21.25 5.08579 21.5858 4.75 22 4.75Z" fill="black"/>
<path fill-rule="evenodd" clip-rule="evenodd" d="M5.25 11C5.25 10.5858 5.58579 10.25 6 10.25H8C8.41421 10.25 8.75 10.5858 8.75 11C8.75 11.4142 8.41421 11.75 8 11.75H6C5.58579 11.75 5.25 11.4142 5.25 11Z" fill="black"/>
<path fill-rule="evenodd" clip-rule="evenodd" d="M10.25 11C10.25 10.5858 10.5858 10.25 11 10.25H13C13.4142 10.25 13.75 10.5858 13.75 11C13.75 11.4142 13.4142 11.75 13 11.75H11C10.5858 11.75 10.25 11.4142 10.25 11Z" fill="black"/>
<path fill-rule="evenodd" clip-rule="evenodd" d="M15.25 11C15.25 10.5858 15.5858 10.25 16 10.25H18C18.4142 10.25 18.75 10.5858 18.75 11C18.75 11.4142 18.4142 11.75 18 11.75H16C15.5858 11.75 15.25 11.4142 15.25 11Z" fill="black"/>
<path fill-rule="evenodd" clip-rule="evenodd" d="M5.25 14.5C5.25 14.0858 5.58579 13.75 6 13.75H8C8.41421 13.75 8.75 14.0858 8.75 14.5C8.75 14.9142 8.41421 15.25 8 15.25H6C5.58579 15.25 5.25 14.9142 5.25 14.5Z" fill="black"/>
<path fill-rule="evenodd" clip-rule="evenodd" d="M10.25 14.5C10.25 14.0858 10.5858 13.75 11 13.75H13C13.4142 13.75 13.75 14.0858 13.75 14.5C13.75 14.9142 13.4142 15.25 13 15.25H11C10.5858 15.25 10.25 14.9142 10.25 14.5Z" fill="black"/>
<path fill-rule="evenodd" clip-rule="evenodd" d="M15.25 14.5C15.25 14.0858 15.5858 13.75 16 13.75H18C18.4142 13.75 18.75 14.0858 18.75 14.5C18.75 14.9142 18.4142 15.25 18 15.25H16C15.5858 15.25 15.25 14.9142 15.25 14.5Z" fill="black"/>
<path fill-rule="evenodd" clip-rule="evenodd" d="M5.25 18C5.25 17.5858 5.58579 17.25 6 17.25H8C8.41421 17.25 8.75 17.5858 8.75 18C8.75 18.4142 8.41421 18.75 8 18.75H6C5.58579 18.75 5.25 18.4142 5.25 18Z" fill="black"/>
<path fill-rule="evenodd" clip-rule="evenodd" d="M10.25 18C10.25 17.5858 10.5858 17.25 11 17.25H13C13.4142 17.25 13.75 17.5858 13.75 18C13.75 18.4142 13.4142 18.75 13 18.75H11C10.5858 18.75 10.25 18.4142 10.25 18Z" fill="black"/>
<path fill-rule="evenodd" clip-rule="evenodd" d="M15.25 18C15.25 17.5858 15.5858 17.25 16 17.25H18C18.4142 17.25 18.75 17.5858 18.75 18C18.75 18.4142 18.4142 18.75 18 18.75H16C15.5858 18.75 15.25 18.4142 15.25 18Z" fill="black"/>
<path fill-rule="evenodd" clip-rule="evenodd" d="M2 4.75C2.41421 4.75 2.75 5.08579 2.75 5.5V11.5C2.75 11.9142 2.41421 12.25 2 12.25C1.58579 12.25 1.25 11.9142 1.25 11.5V5.5C1.25 5.08579 1.58579 4.75 2 4.75Z" fill="black"/>
</svg>
