<svg width="16" height="16" viewBox="0 0 16 16" fill="none" xmlns="http://www.w3.org/2000/svg">
<path fill-rule="evenodd" clip-rule="evenodd" d="M8.0313 0.250001C8.44551 0.250544 8.78085 0.58677 8.78031 1.00098L8.76196 15.001C8.76142 15.4152 8.42519 15.7505 8.01098 15.75C7.59677 15.7495 7.26142 15.4132 7.26196 14.999L7.28031 0.999017C7.28086 0.584804 7.61708 0.249458 8.0313 0.250001Z" fill="white"/>
<path fill-rule="evenodd" clip-rule="evenodd" d="M0.25 8C0.25 7.58579 0.585786 7.25 1 7.25H15C15.4142 7.25 15.75 7.58579 15.75 8C15.75 8.41421 15.4142 8.75 15 8.75H1C0.585786 8.75 0.25 8.41421 0.25 8Z" fill="white"/>
</svg>
